# xmcd CD database file
#
# Track frame offsets:
#	182
#	22000
#	44495
#	66995
#	87425
#	106645
#	123942
#	146062
#	164800
#	185620
#
# Disc length: 2722 seconds
#
# Revision: 0
# Processed by: cddbd v1.5.1PL0 Copyright (c) Steve Scherf et al.
# Submitted via: CDex 1.51
#
DISCID=910aa00a
DTITLE=La Chicas Del Can - Nada Común
DYEAR=1991
DGENRE=Merengue
TTITLE0=Amigo Travieso
TTITLE1=Nada Común
TTITLE2=Te Lo Doy
TTITLE3=A Mía Mía
TTITLE4=Fui Demasiado Fácil
TTITLE5=Culeca
TTITLE6=Cosas Del Amor
TTITLE7=Se Me Fué
TTITLE8=Por Teléfono
TTITLE9=Mas Que Mas
EXTD=YEAR: 1991
EXTT0=
EXTT1=
EXTT2=
EXTT3=
EXTT4=
EXTT5=
EXTT6=
EXTT7=
EXTT8=
EXTT9=
PLAYORDER=
